<mxfile host="app.diagrams.net" modified="2021-03-25T10:25:34.584Z" agent="5.0 (Windows NT 10.0; Win64; x64) AppleWebKit/537.36 (KHTML, like Gecko) Chrome/89.0.4389.90 Safari/537.36" etag="VvPO0JW4c-6mMOFN7xlY" version="14.5.1" type="github">
  <diagram id="pxGQiabKoSvf56pACLTP" name="Page-1">
    <mxGraphModel dx="870" dy="594" grid="1" gridSize="10" guides="1" tooltips="1" connect="1" arrows="1" fold="1" page="1" pageScale="1" pageWidth="827" pageHeight="1169" math="0" shadow="0">
      <root>
        <mxCell id="0" />
        <mxCell id="1" parent="0" />
        <mxCell id="ovMLCnJ30nHp1DszXOsZ-1" value="0" style="rounded=0;whiteSpace=wrap;html=1;" vertex="1" parent="1">
          <mxGeometry x="170" y="320" width="90" height="60" as="geometry" />
        </mxCell>
        <mxCell id="ovMLCnJ30nHp1DszXOsZ-12" style="edgeStyle=orthogonalEdgeStyle;rounded=0;orthogonalLoop=1;jettySize=auto;html=1;exitX=1;exitY=0;exitDx=0;exitDy=0;" edge="1" parent="1" source="ovMLCnJ30nHp1DszXOsZ-2">
          <mxGeometry relative="1" as="geometry">
            <mxPoint x="380" y="310" as="targetPoint" />
          </mxGeometry>
        </mxCell>
        <mxCell id="ovMLCnJ30nHp1DszXOsZ-2" value="1" style="rounded=0;whiteSpace=wrap;html=1;" vertex="1" parent="1">
          <mxGeometry x="260" y="320" width="120" height="60" as="geometry" />
        </mxCell>
        <mxCell id="ovMLCnJ30nHp1DszXOsZ-15" style="edgeStyle=orthogonalEdgeStyle;rounded=0;orthogonalLoop=1;jettySize=auto;html=1;exitX=0;exitY=1;exitDx=0;exitDy=0;fontSize=17;" edge="1" parent="1" source="ovMLCnJ30nHp1DszXOsZ-3" target="ovMLCnJ30nHp1DszXOsZ-16">
          <mxGeometry relative="1" as="geometry">
            <mxPoint x="310" y="470" as="targetPoint" />
          </mxGeometry>
        </mxCell>
        <mxCell id="ovMLCnJ30nHp1DszXOsZ-3" value="2" style="rounded=0;whiteSpace=wrap;html=1;" vertex="1" parent="1">
          <mxGeometry x="310" y="380" width="160" height="60" as="geometry" />
        </mxCell>
        <mxCell id="ovMLCnJ30nHp1DszXOsZ-17" style="edgeStyle=orthogonalEdgeStyle;rounded=0;orthogonalLoop=1;jettySize=auto;html=1;exitX=0;exitY=1;exitDx=0;exitDy=0;fontSize=18;" edge="1" parent="1" source="ovMLCnJ30nHp1DszXOsZ-4" target="ovMLCnJ30nHp1DszXOsZ-18">
          <mxGeometry relative="1" as="geometry">
            <mxPoint x="470" y="460" as="targetPoint" />
          </mxGeometry>
        </mxCell>
        <mxCell id="ovMLCnJ30nHp1DszXOsZ-4" value="3" style="rounded=0;whiteSpace=wrap;html=1;" vertex="1" parent="1">
          <mxGeometry x="470" y="380" width="120" height="60" as="geometry" />
        </mxCell>
        <mxCell id="ovMLCnJ30nHp1DszXOsZ-5" value="4" style="rounded=0;whiteSpace=wrap;html=1;" vertex="1" parent="1">
          <mxGeometry x="590" y="380" width="50" height="60" as="geometry" />
        </mxCell>
        <mxCell id="ovMLCnJ30nHp1DszXOsZ-7" value="0" style="rounded=0;whiteSpace=wrap;html=1;" vertex="1" parent="1">
          <mxGeometry x="175" y="140" width="90" height="60" as="geometry" />
        </mxCell>
        <mxCell id="ovMLCnJ30nHp1DszXOsZ-8" value="1" style="rounded=0;whiteSpace=wrap;html=1;" vertex="1" parent="1">
          <mxGeometry x="265" y="140" width="90" height="60" as="geometry" />
        </mxCell>
        <mxCell id="ovMLCnJ30nHp1DszXOsZ-9" value="2" style="rounded=0;whiteSpace=wrap;html=1;" vertex="1" parent="1">
          <mxGeometry x="515" y="180" width="160" height="60" as="geometry" />
        </mxCell>
        <mxCell id="ovMLCnJ30nHp1DszXOsZ-10" value="3" style="rounded=0;whiteSpace=wrap;html=1;" vertex="1" parent="1">
          <mxGeometry x="365" y="180" width="100" height="60" as="geometry" />
        </mxCell>
        <mxCell id="ovMLCnJ30nHp1DszXOsZ-11" value="4" style="rounded=0;whiteSpace=wrap;html=1;" vertex="1" parent="1">
          <mxGeometry x="465" y="180" width="50" height="60" as="geometry" />
        </mxCell>
        <mxCell id="ovMLCnJ30nHp1DszXOsZ-14" value="pos" style="text;html=1;strokeColor=none;fillColor=none;align=center;verticalAlign=middle;whiteSpace=wrap;rounded=0;fontSize=17;" vertex="1" parent="1">
          <mxGeometry x="360" y="290" width="40" height="20" as="geometry" />
        </mxCell>
        <mxCell id="ovMLCnJ30nHp1DszXOsZ-16" value="c" style="text;html=1;strokeColor=none;fillColor=none;align=center;verticalAlign=middle;whiteSpace=wrap;rounded=0;fontSize=18;" vertex="1" parent="1">
          <mxGeometry x="290" y="460" width="40" height="20" as="geometry" />
        </mxCell>
        <mxCell id="ovMLCnJ30nHp1DszXOsZ-18" value="_max_pos" style="text;html=1;strokeColor=none;fillColor=none;align=center;verticalAlign=middle;whiteSpace=wrap;rounded=0;fontSize=18;" vertex="1" parent="1">
          <mxGeometry x="450" y="450" width="40" height="20" as="geometry" />
        </mxCell>
        <mxCell id="ovMLCnJ30nHp1DszXOsZ-19" value="" style="strokeWidth=2;html=1;shape=mxgraph.flowchart.annotation_2;align=left;labelPosition=right;pointerEvents=1;fontSize=18;direction=south;" vertex="1" parent="1">
          <mxGeometry x="380" y="360" width="90" height="20" as="geometry" />
        </mxCell>
        <mxCell id="ovMLCnJ30nHp1DszXOsZ-20" value="extra" style="text;html=1;strokeColor=none;fillColor=none;align=center;verticalAlign=middle;whiteSpace=wrap;rounded=0;fontSize=18;" vertex="1" parent="1">
          <mxGeometry x="405" y="340" width="40" height="20" as="geometry" />
        </mxCell>
        <mxCell id="ovMLCnJ30nHp1DszXOsZ-22" value="" style="shape=singleArrow;direction=south;whiteSpace=wrap;html=1;fontSize=18;" vertex="1" parent="1">
          <mxGeometry x="500" y="250" width="30" height="30" as="geometry" />
        </mxCell>
        <mxCell id="ovMLCnJ30nHp1DszXOsZ-23" value="make_heap" style="text;html=1;strokeColor=none;fillColor=none;align=center;verticalAlign=middle;whiteSpace=wrap;rounded=0;fontSize=18;" vertex="1" parent="1">
          <mxGeometry x="495" y="280" width="40" height="20" as="geometry" />
        </mxCell>
      </root>
    </mxGraphModel>
  </diagram>
</mxfile>
